<svg xmlns="http://www.w3.org/2000/svg" version="1.1" xmlns:xlink="http://www.w3.org/1999/xlink" width="200" height="200"><svg xmlns="http://www.w3.org/2000/svg" version="1.1" xmlns:xlink="http://www.w3.org/1999/xlink" width="200" height="200"><svg width="200" height="200" viewBox="0 0 200 200" fill="none" xmlns="http://www.w3.org/2000/svg">
<rect width="200" height="200" fill="white"></rect>
<path d="M176.715 113.126C174.292 117.227 169.892 121.012 164.839 124.666C164.69 124.815 164.504 124.927 164.355 125.039H164.317C164.317 125.039 164.168 125.113 164.094 125.188C163.143 125.878 162.155 126.512 161.167 127.201L157.568 129.588L157.531 129.625C151.416 133.652 145.432 137.399 141.964 141.054C138.366 144.857 134.19 151.904 129.902 158.746C129.752 159.007 129.566 159.287 129.417 159.548C129.342 159.697 129.268 159.809 129.193 159.958C125.67 165.532 122.015 170.883 118.529 174.108L118.455 174.183C117.317 175.097 115.994 176.215 114.372 176.812C111.612 171.014 110.419 164.283 110.419 157.628V156.677C110.456 156.192 110.456 155.689 110.456 155.204C111.706 130.539 131.524 110.758 156.226 109.583C156.524 109.583 156.804 109.546 157.102 109.546C157.587 109.509 158.09 109.509 158.538 109.509C165.1 109.509 171.066 110.758 176.753 113.107L176.715 113.126Z" fill="#0B0E13"></path>
<path d="M86.0938 176.343C84.8447 175.765 83.7821 174.87 82.794 173.957C79.7178 171.216 76.7908 167.17 73.9197 162.752C77.4433 167.804 81.1347 172.54 84.6583 175.318L84.6956 175.355C85.143 175.691 85.6464 176.045 86.0938 176.343Z" fill="#0B0E13"></path>
<path d="M113.609 23.4429C113.609 23.4429 113.422 23.3679 113.347 23.3304V23.293C113.46 23.3304 113.535 23.3679 113.609 23.4429Z" fill="#0B0E13"></path>
<path opacity="0.48" d="M43.0996 91.0788C42.4843 91.1161 41.8505 91.1534 41.1979 91.1534C34.7473 91.228 28.595 90.0534 22.9833 87.8535C20.7461 92.794 20.7834 98.3311 21.2681 105.043C21.5291 108.604 22.0325 111.307 22.8155 113.47C28.5763 111.046 35.0643 109.517 41.7573 109.517C42.1674 109.517 42.5962 109.517 43.0064 109.554C42.9691 109.517 42.9691 109.443 42.9691 109.405C41.981 103.253 42.0555 97.0634 43.0809 91.0788H43.0996ZM114.168 176.391C112.043 171.339 110.757 165.876 110.458 160.153C110.421 159.314 110.384 158.475 110.384 157.655V156.704C109.899 156.816 109.358 156.89 108.874 156.965C102.796 157.878 96.569 157.841 90.5471 156.816C90.3234 156.778 90.0997 156.741 89.8573 156.666V157.655C89.8573 164.217 88.4591 170.668 86.0914 176.373C86.7066 176.745 87.3032 177.1 87.9184 177.323C93.9216 179.71 109.657 179.449 115.473 176.373C115.846 176.186 116.201 175.962 116.573 175.645C116.872 175.422 117.226 175.161 117.524 174.956C117.822 174.732 118.139 174.471 118.438 174.191C117.3 175.105 115.828 175.776 114.187 176.391H114.168ZM93.1199 21.4456C90.1556 21.7812 87.154 22.3964 84.544 23.7201C87.0049 29.369 88.4964 35.7451 88.6082 42.3449V43.4448C89.298 43.2584 89.9692 43.1465 90.659 43.0347C91.6471 42.8855 92.6352 42.7737 93.6606 42.6618C98.8994 42.1212 103.989 42.289 108.799 42.9974C109.06 43.0347 109.377 43.072 109.638 43.1465V42.6618C109.526 35.9875 110.999 29.1453 113.348 23.3472C107.308 20.6066 99.1604 20.8863 93.1199 21.4456ZM176.829 86.157C171.18 88.5433 164.953 89.9975 158.428 90.0721H156.843C156.955 90.445 156.992 90.7992 157.067 91.1721C158.055 97.1007 158.092 103.197 157.104 109.312C157.104 109.387 157.067 109.499 157.067 109.573C157.552 109.536 158.055 109.536 158.502 109.536C165.065 109.536 171.031 110.785 176.717 113.134C177.668 111.531 178.32 109.909 178.544 108.194C179.346 102.47 179.271 92.7568 176.829 86.1383V86.157Z" fill="#0B0E13"></path>
<path d="M176.836 86.1671C171.187 88.5535 164.96 90.0077 158.435 90.0823H156.123C131.421 89.2433 111.304 69.7423 109.701 45.077C109.664 44.4617 109.626 43.8278 109.626 43.1753V42.6906C109.514 36.0162 110.987 29.1741 113.336 23.376C113.411 23.4133 113.523 23.4505 113.597 23.4878C113.896 23.637 114.213 23.7861 114.511 23.9353C114.809 24.0844 115.126 24.2709 115.387 24.4573C115.536 24.5319 115.648 24.6064 115.797 24.7183C116.245 25.0166 116.711 25.3708 117.121 25.7437C117.196 25.781 117.233 25.8556 117.307 25.9301C121.185 29.4537 124.858 35.0468 128.493 40.8076C128.829 41.2923 129.146 41.833 129.444 42.3177C129.444 42.3177 129.457 42.3426 129.482 42.3923C129.482 42.3923 129.556 42.4669 129.593 42.5414C133.266 48.3396 136.995 54.119 140.985 57.9409C145.683 62.4899 153.699 66.9271 160.989 71.4575C161.026 71.4947 161.101 71.532 161.138 71.5693C166.563 74.9065 171.578 78.281 174.45 81.7859C175.289 82.8113 175.997 84.0977 176.575 85.5892C176.575 85.6265 176.612 85.6638 176.612 85.7011C176.687 85.8502 176.761 85.9993 176.799 86.1485L176.836 86.1671Z" fill="#0B0E13"></path>
<path d="M89.838 156.658V157.646C89.838 164.209 88.4397 170.659 86.072 176.364C85.6246 176.066 85.1212 175.712 84.6737 175.376L84.6365 175.339C81.1128 172.561 77.4214 167.825 73.8978 162.773C73.8233 162.661 73.7114 162.512 73.5995 162.363C73.0589 161.561 72.4996 160.778 71.9589 159.977L69.3861 156.099C66.9625 152.501 64.7998 149.145 62.9355 146.87C56.8577 139.245 48.3936 134.454 40.2837 129.178L39.4447 128.6L38.7176 128.152L38.2702 127.891C38.2702 127.891 38.0838 127.779 38.0092 127.705C33.6839 125.001 29.6569 122.28 26.8977 119.427C26.8977 119.427 26.8728 119.415 26.8231 119.39L26.5621 119.129C26.1892 118.756 25.7977 118.327 25.4621 117.917C25.2011 117.619 24.9215 117.302 24.735 116.966C24.474 116.631 24.2503 116.276 24.0079 115.903C23.8961 115.717 23.7842 115.531 23.7096 115.326C23.4859 115.027 23.3368 114.673 23.1876 114.337C23.0758 114.076 22.9639 113.759 22.8521 113.461C28.6129 111.038 35.1008 109.509 41.7938 109.509C42.204 109.509 42.6328 109.509 43.0429 109.546C43.4158 109.546 43.8073 109.583 44.1802 109.583C68.8827 110.795 88.6634 130.65 89.838 155.353C89.8753 155.763 89.8753 156.229 89.8753 156.639L89.838 156.658Z" fill="#0B0E13"></path>
<path d="M88.5958 42.3523V43.4522C88.5958 43.8251 88.5958 44.2539 88.5585 44.6268C87.7568 69.3666 68.2558 89.4829 43.5905 91.0863H43.1058C42.4905 91.1236 41.8567 91.1608 41.2042 91.1608C34.7535 91.2354 28.6012 90.0609 22.9895 87.8609C24.2386 85.0458 26.2148 82.4357 29.2537 79.9002C31.9011 77.663 35.0145 75.5376 38.2771 73.4123L42.4533 70.6717C42.4533 70.6717 42.4906 70.6344 42.5278 70.6344C48.2887 66.8311 54.0681 62.9346 58.2443 58.5721C62.5323 54.0604 66.2982 47.5724 70.0829 41.3082C70.1947 41.1591 70.3066 40.9726 70.3812 40.8235C73.7183 35.2864 77.0928 29.973 80.8215 26.3562C81.6977 25.5172 82.6485 24.8088 83.6739 24.2308C83.9349 24.0444 84.2519 23.8952 84.5502 23.7461C87.0111 29.3951 88.5026 35.7711 88.6144 42.3709L88.5958 42.3523Z" fill="#0B0E13"></path>
<path d="M161.114 71.4824V71.5641C161.114 71.5641 161.032 71.5097 161.005 71.4824H161.114Z" fill="#0B0E13"></path>
</svg></svg><style>@media (prefers-color-scheme: light) { :root { filter: none; } }
@media (prefers-color-scheme: dark) { :root { filter: none; } }
</style></svg>