<svg xmlns="http://www.w3.org/2000/svg" version="1.1" xmlns:xlink="http://www.w3.org/1999/xlink" width="130" height="130"><svg xmlns="http://www.w3.org/2000/svg" version="1.1" xmlns:xlink="http://www.w3.org/1999/xlink" width="130" height="130"><svg width="130" height="130" viewBox="0 0 130 130" fill="none" xmlns="http://www.w3.org/2000/svg">
<path d="M128.12 75.7356C126.126 79.1103 122.506 82.2243 118.349 85.2308C118.226 85.3536 118.073 85.4456 117.95 85.5376H117.919C117.919 85.5376 117.797 85.599 117.735 85.6603C116.953 86.2279 116.14 86.7495 115.327 87.317L112.366 89.2805L112.336 89.3112C107.304 92.6245 102.38 95.7078 99.5272 98.7143C96.5667 101.844 93.1307 107.642 89.6026 113.272C89.4798 113.486 89.3265 113.716 89.2037 113.931C89.1424 114.054 89.081 114.146 89.0197 114.269C86.1205 118.855 83.1139 123.258 80.2454 125.911L80.1841 125.973C79.2484 126.724 78.1593 127.645 76.8247 128.136C74.5545 123.365 73.5728 117.827 73.5728 112.351V111.569C73.6034 111.17 73.6034 110.756 73.6034 110.357C74.6312 90.0628 90.9371 73.7875 111.262 72.8211C111.507 72.8211 111.738 72.7905 111.983 72.7905C112.382 72.7598 112.796 72.7598 113.164 72.7598C118.564 72.7598 123.472 73.7875 128.151 75.7203L128.12 75.7356Z" fill="#0B0E13"></path>
<path d="M53.5582 127.75C52.5305 127.274 51.6561 126.538 50.8431 125.786C48.3121 123.532 45.9038 120.203 43.5415 116.567C46.4407 120.724 49.4779 124.621 52.3771 126.906L52.4078 126.937C52.7759 127.213 53.1901 127.504 53.5582 127.75Z" fill="#0B0E13"></path>
<path d="M76.1977 1.94559C76.1977 1.94559 76.0436 1.88393 75.9819 1.8531V1.82227C76.0744 1.8531 76.1361 1.88393 76.1977 1.94559Z" fill="#0B0E13"></path>
<path opacity="0.48" d="M18.1832 57.5955C17.677 57.6262 17.1555 57.6569 16.6186 57.6569C11.3111 57.7182 6.24904 56.7519 1.63183 54.9418C-0.208911 59.0068 -0.178232 63.5626 0.220596 69.0848C0.43535 72.0147 0.849517 74.2389 1.49378 76.0183C6.2337 74.0242 11.5719 72.7663 17.0788 72.7663C17.4162 72.7663 17.769 72.7663 18.1065 72.797C18.0758 72.7663 18.0758 72.705 18.0758 72.6743C17.2628 67.6123 17.3242 62.5195 18.1679 57.5955H18.1832ZM76.6575 127.789C74.9088 123.632 73.8504 119.138 73.605 114.429C73.5743 113.738 73.5436 113.048 73.5436 112.373V111.591C73.1448 111.683 72.6999 111.744 72.3011 111.805C67.3004 112.557 62.177 112.526 57.2223 111.683C57.0383 111.652 56.8542 111.621 56.6548 111.56V112.373C56.6548 117.773 55.5043 123.08 53.5562 127.774C54.0624 128.081 54.5533 128.372 55.0595 128.556C59.9988 130.52 72.9454 130.305 77.7313 127.774C78.0381 127.621 78.3296 127.436 78.6363 127.176C78.8818 126.992 79.1732 126.777 79.4187 126.608C79.6641 126.424 79.9249 126.209 80.1703 125.979C79.2346 126.731 78.0228 127.283 76.6729 127.789H76.6575ZM59.3392 0.302339C56.9002 0.578451 54.4305 1.08465 52.283 2.17376C54.3078 6.82164 55.535 12.0678 55.627 17.498V18.403C56.1946 18.2496 56.7468 18.1576 57.3144 18.0655C58.1274 17.9428 58.9404 17.8508 59.784 17.7587C64.0945 17.3139 68.2822 17.4519 72.2398 18.0348C72.4545 18.0655 72.7153 18.0962 72.93 18.1576V17.7587C72.838 12.2672 74.0498 6.63757 75.9826 1.86697C71.0126 -0.387939 64.3092 -0.157847 59.3392 0.302339ZM128.214 53.5459C123.566 55.5094 118.442 56.7058 113.074 56.7672H111.77C111.862 57.074 111.892 57.3654 111.954 57.6722C112.767 62.5502 112.797 67.5662 111.985 72.5976C111.985 72.659 111.954 72.751 111.954 72.8124C112.353 72.7817 112.767 72.7817 113.135 72.7817C118.534 72.7817 123.443 73.8094 128.122 75.7422C128.904 74.423 129.441 73.0885 129.625 71.6772C130.285 66.968 130.223 58.9761 128.214 53.5306V53.5459Z" fill="#0B0E13"></path>
<path d="M128.219 53.5542C123.572 55.5177 118.448 56.7142 113.079 56.7756H111.177C90.8524 56.0853 74.301 40.0401 72.9818 19.7459C72.9511 19.2397 72.9204 18.7181 72.9204 18.1812V17.7824C72.8284 12.2908 74.0402 6.66123 75.973 1.89062C76.0344 1.9213 76.1264 1.95198 76.1878 1.98266C76.4332 2.10538 76.694 2.22809 76.9394 2.35081C77.1848 2.47353 77.4456 2.62692 77.6603 2.78032C77.7831 2.84168 77.8751 2.90303 77.9978 2.99507C78.366 3.2405 78.7495 3.53196 79.0869 3.83875C79.1483 3.86943 79.179 3.93078 79.2403 3.99214C82.4309 6.89132 85.4528 11.4932 88.444 16.2331C88.7202 16.6319 88.9809 17.0768 89.2264 17.4756C89.2264 17.4756 89.2366 17.4961 89.257 17.537C89.257 17.537 89.3184 17.5983 89.3491 17.6597C92.371 22.4303 95.4389 27.1856 98.7215 30.3302C102.587 34.073 109.183 37.7238 115.181 41.4513C115.212 41.482 115.273 41.5127 115.304 41.5434C119.767 44.2892 123.894 47.0656 126.256 49.9495C126.946 50.7931 127.529 51.8516 128.005 53.0787C128.005 53.1094 128.035 53.1401 128.035 53.1708C128.097 53.2935 128.158 53.4162 128.189 53.5389L128.219 53.5542Z" fill="#0B0E13"></path>
<path d="M56.6389 111.553V112.366C56.6389 117.766 55.4885 123.073 53.5403 127.767C53.1722 127.522 52.758 127.23 52.3899 126.954L52.3592 126.924C49.46 124.638 46.4228 120.742 43.5236 116.585C43.4623 116.493 43.3702 116.37 43.2782 116.247C42.8333 115.588 42.3732 114.944 41.9283 114.284L39.8114 111.093C37.8173 108.133 36.0379 105.372 34.504 103.5C29.5033 97.2263 22.5391 93.2841 15.8664 88.943L15.1761 88.4675L14.5779 88.0993L14.2097 87.8846C14.2097 87.8846 14.0563 87.7925 13.995 87.7312C10.4362 85.5069 7.12286 83.2674 4.85261 80.9204C4.85261 80.9204 4.83215 80.9102 4.79125 80.8897L4.5765 80.675C4.26971 80.3682 3.94757 80.0154 3.67146 79.6779C3.45671 79.4325 3.22661 79.1717 3.07322 78.8956C2.85847 78.6195 2.67439 78.328 2.47498 78.0212C2.38294 77.8678 2.2909 77.7144 2.22955 77.5457C2.04547 77.3003 1.92275 77.0088 1.80004 76.7327C1.708 76.518 1.61596 76.2572 1.52393 76.0118C6.26385 74.0176 11.602 72.7598 17.1089 72.7598C17.4464 72.7598 17.7992 72.7598 18.1367 72.7905C18.4435 72.7905 18.7656 72.8211 19.0724 72.8211C39.3973 73.8182 55.6725 90.1548 56.6389 110.48C56.6696 110.817 56.6696 111.201 56.6696 111.538L56.6389 111.553Z" fill="#0B0E13"></path>
<path d="M55.6168 17.5042V18.4092C55.6168 18.716 55.6168 19.0688 55.5862 19.3756C54.9266 39.7312 38.8814 56.2826 18.5872 57.6018H18.1883C17.6821 57.6325 17.1606 57.6632 16.6237 57.6632C11.3162 57.7245 6.25417 56.7581 1.63696 54.948C2.66471 52.6318 4.29071 50.4842 6.79105 48.3981C8.96927 46.5573 11.531 44.8086 14.2154 43.0599L17.6515 40.805C17.6515 40.805 17.6821 40.7743 17.7128 40.7743C22.4527 37.645 27.208 34.4391 30.6441 30.8496C34.1722 27.1374 37.2707 21.7993 40.3847 16.6452C40.4767 16.5225 40.5687 16.3691 40.6301 16.2463C43.3759 11.6905 46.1523 7.31872 49.2202 4.34285C49.9412 3.65257 50.7235 3.06967 51.5672 2.59414C51.782 2.44075 52.0427 2.31803 52.2882 2.19531C54.313 6.8432 55.5401 12.0893 55.6322 17.5195L55.6168 17.5042Z" fill="#0B0E13"></path>
<path d="M115.284 41.4717V41.5389C115.284 41.5389 115.217 41.4941 115.194 41.4717H115.284Z" fill="#0B0E13"></path>
</svg></svg><style>@media (prefers-color-scheme: light) { :root { filter: none; } }
@media (prefers-color-scheme: dark) { :root { filter: none; } }
</style></svg>