<svg xmlns="http://www.w3.org/2000/svg" version="1.1" xmlns:xlink="http://www.w3.org/1999/xlink" width="1000" height="1000"><style>
    #light-icon {
      display: inline;
    }
    #dark-icon {
      display: none;
    }

    @media (prefers-color-scheme: dark) {
      #light-icon {
        display: none;
      }
      #dark-icon {
        display: inline;
      }
    }
  </style><g id="light-icon"><svg xmlns="http://www.w3.org/2000/svg" version="1.1" xmlns:xlink="http://www.w3.org/1999/xlink" width="1000" height="1000"><g><g transform="matrix(7.8125,0,0,7.8125,0,0)"><svg xmlns="http://www.w3.org/2000/svg" version="1.1" xmlns:xlink="http://www.w3.org/1999/xlink" width="128" height="128"><svg width="128" height="128" viewBox="0 0 128 128" fill="none" xmlns="http://www.w3.org/2000/svg">
<path d="M126.149 74.5697C124.186 77.8925 120.621 80.9586 116.528 83.9189C116.407 84.0397 116.256 84.1303 116.135 84.2209H116.105C116.105 84.2209 115.984 84.2813 115.924 84.3418C115.154 84.9006 114.353 85.4141 113.553 85.9729L110.638 87.9062L110.608 87.9364C105.654 91.1988 100.805 94.2346 97.9961 97.1949C95.0811 100.276 91.6979 105.985 88.2241 111.528C88.1033 111.74 87.9523 111.966 87.8314 112.178C87.771 112.298 87.7106 112.389 87.6502 112.51C84.7956 117.026 81.8353 121.361 79.011 123.974L78.9505 124.034C78.0292 124.774 76.9569 125.68 75.6429 126.164C73.4075 121.466 72.4409 116.014 72.4409 110.622V109.852C72.4711 109.459 72.4711 109.051 72.4711 108.658C73.4831 88.6765 89.5381 72.6516 109.55 71.7001C109.792 71.7001 110.019 71.6699 110.26 71.6699C110.653 71.6397 111.061 71.6396 111.423 71.6396C116.74 71.6396 121.573 72.6516 126.179 74.5546L126.149 74.5697Z" fill="#0B0E13"></path>
<path d="M52.7342 125.784C51.7223 125.316 50.8614 124.591 50.0609 123.851C47.5688 121.63 45.1975 118.353 42.8716 114.773C45.7262 118.867 48.7167 122.703 51.5712 124.953L51.6014 124.983C51.9639 125.255 52.3717 125.542 52.7342 125.784Z" fill="#0B0E13"></path>
<path d="M75.0255 1.91537C75.0255 1.91537 74.8737 1.85466 74.813 1.8243V1.79395C74.9041 1.8243 74.9648 1.85466 75.0255 1.91537Z" fill="#0B0E13"></path>
<path opacity="0.48" d="M17.9035 56.7094C17.405 56.7396 16.8915 56.7699 16.3629 56.7699C11.1371 56.8303 6.1529 55.8787 1.60673 54.0965C-0.205697 58.099 -0.17549 62.5847 0.217202 68.022C0.428652 70.9068 0.836448 73.0968 1.4708 74.8488C6.13779 72.8853 11.3938 71.6468 16.816 71.6468C17.1483 71.6468 17.4957 71.6469 17.8279 71.6771C17.7977 71.6469 17.7977 71.5864 17.7977 71.5562C16.9972 66.5721 17.0577 61.5577 17.8884 56.7094H17.9035ZM75.4782 125.823C73.7564 121.73 72.7142 117.305 72.4726 112.668C72.4424 111.988 72.4122 111.309 72.4122 110.644V109.874C72.0195 109.965 71.5815 110.025 71.1888 110.085C66.265 110.825 61.2204 110.795 56.342 109.965C56.1608 109.934 55.9795 109.904 55.7832 109.844V110.644C55.7832 115.961 54.6504 121.186 52.7322 125.808C53.2307 126.11 53.714 126.397 54.2124 126.578C59.0757 128.512 71.8231 128.3 76.5354 125.808C76.8375 125.657 77.1245 125.476 77.4266 125.219C77.6682 125.038 77.9552 124.826 78.1968 124.66C78.4385 124.479 78.6953 124.268 78.9369 124.041C78.0156 124.781 76.8224 125.325 75.4933 125.823H75.4782ZM58.4263 0.297688C56.0248 0.569552 53.5931 1.06797 51.4787 2.14032C53.4723 6.7167 54.6806 11.8821 54.7712 17.2288V18.1199C55.3301 17.9688 55.8738 17.8782 56.4326 17.7876C57.2331 17.6668 58.0336 17.5761 58.8643 17.4855C63.1084 17.0475 67.2317 17.1835 71.1284 17.7574C71.3398 17.7876 71.5966 17.8178 71.808 17.8782V17.4855C71.7174 12.0785 72.9106 6.53545 74.8136 1.83825C69.9201 -0.381971 63.3198 -0.155419 58.4263 0.297688ZM126.241 52.7221C121.665 54.6554 116.62 55.8334 111.334 55.8939H110.05C110.141 56.1959 110.171 56.4829 110.231 56.785C111.032 61.5879 111.062 66.5267 110.262 71.4807C110.262 71.5411 110.231 71.6317 110.231 71.6922C110.624 71.662 111.032 71.662 111.394 71.662C116.711 71.662 121.544 72.6739 126.151 74.5769C126.921 73.278 127.45 71.964 127.631 70.5745C128.28 65.9377 128.22 58.0688 126.241 52.707V52.7221Z" fill="#0B0E13"></path>
<path d="M126.247 52.7301C121.67 54.6634 116.626 55.8415 111.34 55.9019H109.467C89.4546 55.2222 73.1578 39.4239 71.8589 19.4419C71.8287 18.9435 71.7985 18.4299 71.7985 17.9013V17.5086C71.7079 12.1015 72.9011 6.55854 74.8041 1.86133C74.8645 1.89154 74.9552 1.92174 75.0156 1.95195C75.2572 2.07278 75.514 2.19361 75.7557 2.31443C75.9973 2.43526 76.2541 2.5863 76.4655 2.73733C76.5863 2.79775 76.677 2.85816 76.7978 2.94878C77.1603 3.19044 77.5379 3.47741 77.8702 3.77948C77.9306 3.80969 77.9608 3.8701 78.0212 3.93051C81.1627 6.78509 84.1381 11.3162 87.0833 15.9832C87.3552 16.3758 87.6119 16.8139 87.8536 17.2065C87.8536 17.2065 87.8637 17.2267 87.8838 17.267C87.8838 17.267 87.9442 17.3274 87.9744 17.3878C90.9498 22.085 93.9705 26.7671 97.2027 29.8633C101.009 33.5486 107.503 37.1432 113.409 40.8134C113.439 40.8436 113.499 40.8738 113.53 40.904C117.925 43.6076 121.988 46.3413 124.314 49.1808C124.993 50.0115 125.567 51.0536 126.035 52.2619C126.035 52.2921 126.066 52.3223 126.066 52.3525C126.126 52.4734 126.186 52.5942 126.217 52.715L126.247 52.7301Z" fill="#0B0E13"></path>
<path d="M55.7676 109.837V110.637C55.7676 115.953 54.6348 121.179 52.7166 125.801C52.3542 125.559 51.9464 125.272 51.5839 125L51.5537 124.97C48.6991 122.72 45.7086 118.884 42.854 114.79C42.7936 114.7 42.703 114.579 42.6124 114.458C42.1744 113.809 41.7213 113.174 41.2833 112.525L39.199 109.383C37.2355 106.468 35.4835 103.75 33.9731 101.907C29.0494 95.7298 22.1924 91.8482 15.6223 87.5739L14.9427 87.1057L14.3536 86.7432L13.9911 86.5317C13.9911 86.5317 13.8401 86.4411 13.7797 86.3807C10.2757 84.1907 7.01329 81.9856 4.77796 79.6747C4.77796 79.6747 4.75782 79.6647 4.71754 79.6445L4.5061 79.4331C4.20402 79.131 3.88685 78.7836 3.61499 78.4514C3.40354 78.2097 3.17698 77.9529 3.02595 77.6811C2.8145 77.4092 2.63325 77.1222 2.43691 76.8202C2.34629 76.6691 2.25567 76.5181 2.19525 76.352C2.01401 76.1103 1.89318 75.8233 1.77235 75.5515C1.68173 75.34 1.59111 75.0833 1.50049 74.8416C6.16749 72.8781 11.4235 71.6396 16.8457 71.6396C17.178 71.6396 17.5254 71.6397 17.8576 71.6699C18.1597 71.6699 18.4769 71.7001 18.779 71.7001C38.7912 72.6818 54.816 88.7671 55.7676 108.779C55.7978 109.112 55.7978 109.489 55.7978 109.821L55.7676 109.837Z" fill="#0B0E13"></path>
<path d="M54.7612 17.2345V18.1256C54.7612 18.4277 54.7612 18.7751 54.731 19.0771C54.0816 39.1196 38.2832 55.4163 18.3012 56.7152H17.9086C17.4101 56.7454 16.8966 56.7756 16.368 56.7756C11.1422 56.836 6.15799 55.8845 1.61182 54.1023C2.62375 51.8216 4.22473 49.7071 6.68661 47.6531C8.83132 45.8406 11.3536 44.1188 13.9967 42.397L17.3799 40.1768C17.3799 40.1768 17.4101 40.1466 17.4403 40.1466C22.1073 37.0655 26.7894 33.9088 30.1726 30.3746C33.6465 26.7195 36.6974 21.4635 39.7634 16.3887C39.854 16.2679 39.9446 16.1168 40.0051 15.996C42.7086 11.5102 45.4423 7.20572 48.463 4.27563C49.1729 3.59597 49.9432 3.02204 50.7739 2.55383C50.9853 2.40279 51.2421 2.28196 51.4837 2.16113C53.4774 6.73751 54.6857 11.9029 54.7763 17.2496L54.7612 17.2345Z" fill="#0B0E13"></path>
<path d="M113.51 40.834V40.9002C113.51 40.9002 113.444 40.856 113.422 40.834H113.51Z" fill="#0B0E13"></path>
</svg></svg></g></g></svg></g><g id="dark-icon"><svg xmlns="http://www.w3.org/2000/svg" version="1.1" xmlns:xlink="http://www.w3.org/1999/xlink" width="1000" height="1000"><g><g transform="matrix(7.8125,0,0,7.8125,0,0)"><svg xmlns="http://www.w3.org/2000/svg" version="1.1" xmlns:xlink="http://www.w3.org/1999/xlink" width="128" height="128"><svg width="128" height="128" viewBox="0 0 128 128" fill="none" xmlns="http://www.w3.org/2000/svg">
<path d="M126.149 74.5697C124.186 77.8925 120.621 80.9586 116.528 83.9189C116.407 84.0397 116.256 84.1303 116.135 84.2209H116.105C116.105 84.2209 115.984 84.2813 115.924 84.3418C115.154 84.9006 114.353 85.4141 113.553 85.9729L110.638 87.9062L110.608 87.9364C105.654 91.1988 100.805 94.2346 97.9961 97.1949C95.0811 100.276 91.6979 105.985 88.2241 111.528C88.1033 111.74 87.9523 111.966 87.8314 112.178C87.771 112.298 87.7106 112.389 87.6502 112.51C84.7956 117.026 81.8353 121.361 79.011 123.974L78.9505 124.034C78.0292 124.774 76.9569 125.68 75.6429 126.164C73.4075 121.466 72.4409 116.014 72.4409 110.622V109.852C72.4711 109.459 72.4711 109.051 72.4711 108.659C73.4831 88.6765 89.5381 72.6516 109.55 71.7001C109.792 71.7001 110.019 71.6699 110.26 71.6699C110.653 71.6397 111.061 71.6396 111.423 71.6396C116.74 71.6396 121.573 72.6516 126.179 74.5546L126.149 74.5697Z" fill="#F9F9F7"></path>
<path d="M52.7342 125.784C51.7223 125.316 50.8614 124.591 50.0609 123.851C47.5688 121.63 45.1975 118.353 42.8716 114.773C45.7262 118.867 48.7167 122.703 51.5712 124.953L51.6014 124.983C51.9639 125.255 52.3717 125.542 52.7342 125.784Z" fill="#F9F9F7"></path>
<path d="M75.0255 1.91537C75.0255 1.91537 74.8737 1.85466 74.813 1.8243V1.79395C74.9041 1.8243 74.9648 1.85466 75.0255 1.91537Z" fill="#F9F9F7"></path>
<path opacity="0.48" d="M17.9035 56.7094C17.405 56.7396 16.8915 56.7699 16.3629 56.7699C11.1371 56.8303 6.1529 55.8787 1.60673 54.0965C-0.205697 58.099 -0.17549 62.5847 0.217202 68.022C0.428652 70.9068 0.836448 73.0968 1.4708 74.8488C6.13779 72.8853 11.3938 71.6469 16.816 71.6469C17.1483 71.6469 17.4957 71.6469 17.8279 71.6771C17.7977 71.6469 17.7977 71.5864 17.7977 71.5562C16.9972 66.5721 17.0577 61.5577 17.8884 56.7094H17.9035ZM75.4782 125.823C73.7564 121.73 72.7142 117.305 72.4726 112.668C72.4424 111.988 72.4122 111.309 72.4122 110.644V109.874C72.0195 109.965 71.5815 110.025 71.1888 110.085C66.265 110.825 61.2204 110.795 56.342 109.965C56.1608 109.934 55.9795 109.904 55.7832 109.844V110.644C55.7832 115.961 54.6504 121.186 52.7323 125.808C53.2307 126.11 53.714 126.397 54.2124 126.578C59.0757 128.512 71.8231 128.3 76.5354 125.808C76.8375 125.657 77.1245 125.476 77.4266 125.219C77.6682 125.038 77.9552 124.826 78.1968 124.66C78.4385 124.479 78.6953 124.268 78.9369 124.041C78.0156 124.781 76.8224 125.325 75.4933 125.823H75.4782ZM58.4263 0.297688C56.0248 0.569552 53.5931 1.06797 51.4786 2.14032C53.4723 6.7167 54.6806 11.8821 54.7712 17.2288V18.1199C55.3301 17.9688 55.8738 17.8782 56.4326 17.7876C57.2331 17.6668 58.0336 17.5761 58.8643 17.4855C63.1084 17.0475 67.2317 17.1835 71.1284 17.7574C71.3398 17.7876 71.5966 17.8178 71.808 17.8782V17.4855C71.7174 12.0785 72.9106 6.53545 74.8136 1.83825C69.9201 -0.381971 63.3198 -0.155419 58.4263 0.297688ZM126.241 52.7221C121.665 54.6554 116.62 55.8334 111.334 55.8939H110.05C110.141 56.1959 110.171 56.4829 110.231 56.785C111.032 61.5879 111.062 66.5267 110.262 71.4807C110.262 71.5411 110.231 71.6317 110.231 71.6922C110.624 71.6619 111.032 71.662 111.394 71.662C116.711 71.662 121.544 72.6739 126.151 74.5769C126.921 73.278 127.45 71.964 127.631 70.5745C128.28 65.9377 128.22 58.0688 126.241 52.707V52.7221Z" fill="#F9F9F7"></path>
<path d="M126.247 52.7301C121.67 54.6634 116.626 55.8415 111.34 55.9019H109.467C89.4546 55.2222 73.1578 39.4239 71.8589 19.4419C71.8287 18.9435 71.7985 18.4299 71.7985 17.9013V17.5086C71.7079 12.1015 72.9011 6.55854 74.8041 1.86133C74.8645 1.89154 74.9552 1.92174 75.0156 1.95195C75.2572 2.07278 75.514 2.19361 75.7557 2.31443C75.9973 2.43526 76.2541 2.5863 76.4655 2.73733C76.5863 2.79775 76.677 2.85816 76.7978 2.94878C77.1603 3.19044 77.5379 3.47741 77.8702 3.77948C77.9306 3.80969 77.9608 3.8701 78.0212 3.93051C81.1627 6.78509 84.1381 11.3162 87.0833 15.9832C87.3552 16.3758 87.6119 16.8139 87.8536 17.2065C87.8536 17.2065 87.8637 17.2267 87.8838 17.267C87.8838 17.267 87.9442 17.3274 87.9744 17.3878C90.9498 22.085 93.9705 26.7671 97.2027 29.8633C101.009 33.5486 107.503 37.1432 113.409 40.8134C113.439 40.8436 113.499 40.8738 113.53 40.904C117.925 43.6076 121.988 46.3413 124.314 49.1808C124.993 50.0115 125.567 51.0536 126.035 52.2619C126.035 52.2921 126.066 52.3223 126.066 52.3525C126.126 52.4734 126.186 52.5942 126.217 52.715L126.247 52.7301Z" fill="#F9F9F7"></path>
<path d="M55.7676 109.837V110.637C55.7676 115.953 54.6348 121.179 52.7166 125.801C52.3542 125.559 51.9464 125.272 51.5839 125L51.5537 124.97C48.6991 122.72 45.7086 118.884 42.854 114.79C42.7936 114.7 42.703 114.579 42.6124 114.458C42.1744 113.809 41.7213 113.174 41.2833 112.525L39.199 109.383C37.2355 106.468 35.4835 103.75 33.9731 101.907C29.0494 95.7298 22.1924 91.8482 15.6223 87.5739L14.9427 87.1057L14.3536 86.7432L13.9911 86.5317C13.9911 86.5317 13.8401 86.4411 13.7797 86.3807C10.2757 84.1907 7.01329 81.9856 4.77796 79.6747C4.77796 79.6747 4.75782 79.6647 4.71755 79.6445L4.5061 79.4331C4.20402 79.131 3.88685 78.7836 3.61499 78.4514C3.40354 78.2097 3.17698 77.9529 3.02595 77.6811C2.8145 77.4092 2.63326 77.1222 2.43691 76.8202C2.34629 76.6691 2.25567 76.5181 2.19525 76.352C2.01401 76.1103 1.89318 75.8233 1.77235 75.5515C1.68173 75.34 1.59111 75.0833 1.50049 74.8416C6.16749 72.8781 11.4235 71.6396 16.8457 71.6396C17.178 71.6396 17.5254 71.6397 17.8576 71.6699C18.1597 71.6699 18.4769 71.7001 18.779 71.7001C38.7912 72.6818 54.816 88.7671 55.7676 108.779C55.7978 109.112 55.7978 109.489 55.7978 109.821L55.7676 109.837Z" fill="#F9F9F7"></path>
<path d="M54.7612 17.2345V18.1256C54.7612 18.4277 54.7612 18.7751 54.731 19.0771C54.0816 39.1195 38.2832 55.4163 18.3012 56.7152H17.9086C17.4101 56.7454 16.8966 56.7756 16.368 56.7756C11.1422 56.836 6.15799 55.8845 1.61182 54.1023C2.62375 51.8216 4.22473 49.7071 6.68661 47.6531C8.83132 45.8406 11.3536 44.1188 13.9967 42.397L17.3799 40.1768C17.3799 40.1768 17.4101 40.1466 17.4403 40.1466C22.1073 37.0655 26.7894 33.9088 30.1726 30.3746C33.6465 26.7195 36.6974 21.4635 39.7634 16.3887C39.854 16.2679 39.9446 16.1168 40.0051 15.996C42.7086 11.5102 45.4423 7.20572 48.463 4.27563C49.1729 3.59597 49.9432 3.02204 50.7739 2.55383C50.9853 2.40279 51.2421 2.28196 51.4837 2.16113C53.4774 6.73751 54.6857 11.9029 54.7763 17.2496L54.7612 17.2345Z" fill="#F9F9F7"></path>
<path d="M113.51 40.834V40.9002C113.51 40.9002 113.444 40.856 113.422 40.834H113.51Z" fill="#F9F9F7"></path>
</svg></svg></g></g></svg></g></svg>