<svg xmlns="http://www.w3.org/2000/svg" version="1.1" xmlns:xlink="http://www.w3.org/1999/xlink" width="1000" height="1000"><style>
    #light-icon {
      display: inline;
    }
    #dark-icon {
      display: none;
    }

    @media (prefers-color-scheme: dark) {
      #light-icon {
        display: none;
      }
      #dark-icon {
        display: inline;
      }
    }
  </style><g id="light-icon"><svg xmlns="http://www.w3.org/2000/svg" version="1.1" xmlns:xlink="http://www.w3.org/1999/xlink" width="1000" height="1000"><g><g transform="matrix(25,0,0,25,0,50)"><svg xmlns="http://www.w3.org/2000/svg" version="1.1" xmlns:xlink="http://www.w3.org/1999/xlink" width="40" height="36"><svg width="40" height="36" viewBox="0 0 40 36" fill="none" xmlns="http://www.w3.org/2000/svg">
<path d="M38.8945 20.8765C38.2891 21.8067 37.1901 22.6649 35.9282 23.4936C35.8909 23.5274 35.8443 23.5528 35.8071 23.5782H35.7978C35.7978 23.5782 35.7605 23.5951 35.7419 23.612C35.5044 23.7684 35.2576 23.9122 35.0108 24.0686L34.112 24.6098L34.1027 24.6183C32.5753 25.5315 31.0805 26.3813 30.2144 27.21C29.3157 28.0725 28.2726 29.6707 27.2015 31.2224C27.1643 31.2815 27.1177 31.345 27.0804 31.4042C27.0618 31.438 27.0432 31.4633 27.0246 31.4972C26.1444 32.7613 25.2317 33.9748 24.3609 34.7062L24.3423 34.7231C24.0582 34.9303 23.7276 35.184 23.3225 35.3193C22.6333 34.0044 22.3353 32.4781 22.3353 30.9687V30.753C22.3446 30.6431 22.3446 30.529 22.3446 30.419C22.6566 24.8254 27.6066 20.3395 33.7768 20.0732C33.8513 20.0732 33.9211 20.0647 33.9956 20.0647C34.1167 20.0563 34.2424 20.0563 34.3542 20.0563C35.9934 20.0563 37.4835 20.3395 38.9038 20.8723L38.8945 20.8765Z" fill="#0B0E13"></path>
<path d="M16.2583 35.2136C15.9463 35.0825 15.6809 34.8795 15.4341 34.6724C14.6657 34.0509 13.9346 33.1334 13.2175 32.1314C14.0976 33.2771 15.0196 34.351 15.8997 34.981L15.909 34.9895C16.0208 35.0656 16.1465 35.1459 16.2583 35.2136Z" fill="#0B0E13"></path>
<path d="M23.1321 0.539958C23.1321 0.539958 23.0852 0.523046 23.0664 0.51459V0.506134C23.0945 0.51459 23.1133 0.523046 23.1321 0.539958Z" fill="#0B0E13"></path>
<path opacity="0.48" d="M5.51996 15.8748C5.36629 15.8833 5.20796 15.8917 5.04497 15.8917C3.43376 15.9086 1.89705 15.6423 0.495383 15.1434C-0.0634201 16.2638 -0.0541067 17.5195 0.0669673 19.0416C0.132161 19.8491 0.257892 20.4622 0.453473 20.9526C1.89239 20.403 3.51292 20.0563 5.18467 20.0563C5.28712 20.0563 5.39423 20.0563 5.49667 20.0647C5.48736 20.0563 5.48736 20.0394 5.48736 20.0309C5.24055 18.6357 5.25918 17.232 5.5153 15.8748H5.51996ZM23.2713 35.222C22.7404 34.0762 22.4191 32.8374 22.3446 31.5394C22.3353 31.3492 22.326 31.1589 22.326 30.9729V30.7573C22.2049 30.7826 22.0699 30.7996 21.9488 30.8165C20.4307 31.0236 18.8754 31.0152 17.3712 30.7826C17.3154 30.7742 17.2595 30.7657 17.1989 30.7488V30.9729C17.1989 32.4611 16.8497 33.924 16.2583 35.2178C16.412 35.3023 16.561 35.3827 16.7147 35.4334C18.2141 35.9746 22.1444 35.9154 23.5972 35.2178C23.6904 35.1755 23.7789 35.1248 23.872 35.0529C23.9465 35.0022 24.035 34.943 24.1095 34.8965C24.184 34.8457 24.2632 34.7865 24.3377 34.7231C24.0536 34.9303 23.6857 35.0825 23.2759 35.222H23.2713ZM18.0139 0.0833325C17.2735 0.159436 16.5237 0.298959 15.8718 0.599145C16.4865 1.88022 16.859 3.32619 16.8869 4.82289V5.07234C17.0592 5.03006 17.2269 5.00469 17.3992 4.97932C17.646 4.9455 17.8928 4.92013 18.1489 4.89476C19.4574 4.77215 20.7287 4.8102 21.9301 4.97087C21.9953 4.97932 22.0745 4.98778 22.1397 5.00469V4.89476C22.1118 3.38115 22.4796 1.82949 23.0664 0.514586C21.5576 -0.106926 19.5226 -0.0435067 18.0139 0.0833325ZM38.9224 14.7586C37.5114 15.2998 35.9561 15.6296 34.3263 15.6465H33.9304C33.9584 15.7311 33.9677 15.8114 33.9863 15.8959C34.2331 17.2404 34.2424 18.623 33.9956 20.0098C33.9956 20.0267 33.9863 20.052 33.9863 20.069C34.1074 20.0605 34.2331 20.0605 34.3449 20.0605C35.9841 20.0605 37.4742 20.3438 38.8945 20.8765C39.132 20.5129 39.295 20.1451 39.3508 19.7561C39.5511 18.4581 39.5325 16.2553 38.9224 14.7544V14.7586Z" fill="#0B0E13"></path>
<path d="M38.9224 14.7586C37.5114 15.2998 35.9561 15.6296 34.3263 15.6465H33.7488C27.5787 15.4562 22.5541 11.0338 22.1537 5.44017C22.1443 5.30065 22.135 5.1569 22.135 5.00892V4.89899C22.1071 3.38538 22.475 1.83371 23.0617 0.518814C23.0803 0.52727 23.1083 0.535726 23.1269 0.544182C23.2014 0.578005 23.2806 0.611829 23.3551 0.645653C23.4296 0.679477 23.5088 0.721757 23.574 0.764036C23.6112 0.780948 23.6391 0.79786 23.6764 0.823228C23.7882 0.890875 23.9046 0.971206 24.007 1.05577C24.0257 1.06422 24.035 1.08113 24.0536 1.09805C25.0222 1.89713 25.9396 3.16552 26.8476 4.47197C26.9314 4.58189 27.0106 4.70451 27.0851 4.81443C27.0851 4.81443 27.0882 4.82007 27.0944 4.83135C27.0944 4.83135 27.113 4.84826 27.1224 4.86517C28.0397 6.18007 28.9711 7.49074 29.9676 8.35747C31.1411 9.3891 33.1435 10.3954 34.9642 11.4228C34.9735 11.4312 34.9922 11.4397 35.0015 11.4481C36.3566 12.2049 37.6092 12.9702 38.3264 13.7651C38.5359 13.9976 38.7129 14.2893 38.8572 14.6276C38.8572 14.636 38.8665 14.6445 38.8665 14.6529C38.8852 14.6867 38.9038 14.7206 38.9131 14.7544L38.9224 14.7586Z" fill="#0B0E13"></path>
<path d="M17.1943 30.7488V30.9729C17.1943 32.4611 16.845 33.924 16.2536 35.2178C16.1419 35.1501 16.0161 35.0698 15.9044 34.9937L15.8951 34.9852C15.0149 34.3553 14.0929 33.2814 13.2128 32.1356C13.1942 32.1102 13.1662 32.0764 13.1383 32.0426C13.0032 31.8608 12.8635 31.6832 12.7285 31.5014L12.0859 30.622C11.4805 29.806 10.9403 29.0449 10.4747 28.5291C8.95658 26.7999 6.84244 25.7133 4.81678 24.5168L4.60723 24.3857L4.42562 24.2842L4.31385 24.2251C4.31385 24.2251 4.26729 24.1997 4.24866 24.1828C3.16831 23.5697 2.16246 22.9524 1.47327 22.3056C1.47327 22.3056 1.46706 22.3027 1.45464 22.2971L1.38945 22.2379C1.29632 22.1534 1.19853 22.0561 1.11471 21.9631C1.04951 21.8954 0.979661 21.8236 0.933094 21.7475C0.867901 21.6714 0.812021 21.591 0.751484 21.5065C0.723543 21.4642 0.695603 21.4219 0.676977 21.3754C0.621096 21.3078 0.583842 21.2274 0.546589 21.1513C0.518649 21.0921 0.490709 21.0203 0.462769 20.9526C1.90169 20.403 3.52222 20.0563 5.19397 20.0563C5.29642 20.0563 5.40352 20.0563 5.50597 20.0647C5.5991 20.0647 5.69689 20.0732 5.79003 20.0732C11.9601 20.348 16.9009 24.8508 17.1943 30.4529C17.2036 30.5459 17.2036 30.6516 17.2036 30.7446L17.1943 30.7488Z" fill="#0B0E13"></path>
<path d="M16.8823 4.82712V5.07657C16.8823 5.16113 16.8823 5.25837 16.873 5.34293C16.6727 10.9535 11.8018 15.5154 5.64101 15.879H5.51993C5.36626 15.8875 5.20794 15.896 5.04495 15.896C3.43374 15.9129 1.89703 15.6465 0.495361 15.1476C0.80736 14.5092 1.30097 13.9173 2.06001 13.3423C2.72126 12.8349 3.49893 12.3529 4.31385 11.8709L5.35695 11.2494C5.35695 11.2494 5.36626 11.241 5.37558 11.241C6.8145 10.3784 8.25807 9.4948 9.30117 8.50546C10.3722 7.48229 11.3129 6.01095 12.2582 4.59035C12.2861 4.55653 12.3141 4.51425 12.3327 4.48043C13.1662 3.22472 14.0091 2.01975 14.9404 1.19952C15.1593 1.00926 15.3968 0.848599 15.6529 0.717532C15.7181 0.675253 15.7973 0.641429 15.8718 0.607605C16.4864 1.88868 16.859 3.33465 16.8869 4.83135L16.8823 4.82712Z" fill="#0B0E13"></path>
<path d="M35.0064 11.427V11.4524C35.0064 11.4524 34.9783 11.4354 34.9689 11.427H35.0064Z" fill="#0B0E13"></path>
</svg></svg></g></g></svg></g><g id="dark-icon"><svg xmlns="http://www.w3.org/2000/svg" version="1.1" xmlns:xlink="http://www.w3.org/1999/xlink" width="1000" height="1000"><g><g transform="matrix(25,0,0,25,0,50)"><svg xmlns="http://www.w3.org/2000/svg" version="1.1" xmlns:xlink="http://www.w3.org/1999/xlink" width="40" height="36"><svg width="40" height="36" viewBox="0 0 40 36" fill="none" xmlns="http://www.w3.org/2000/svg">
<path d="M38.8945 20.8765C38.2891 21.8067 37.1901 22.6649 35.9282 23.4936C35.8909 23.5274 35.8443 23.5528 35.8071 23.5782H35.7978C35.7978 23.5782 35.7605 23.5951 35.7419 23.612C35.5044 23.7684 35.2576 23.9122 35.0108 24.0686L34.112 24.6098L34.1027 24.6183C32.5753 25.5315 31.0805 26.3813 30.2144 27.21C29.3157 28.0725 28.2726 29.6707 27.2015 31.2224C27.1643 31.2815 27.1177 31.345 27.0804 31.4042C27.0618 31.438 27.0432 31.4633 27.0246 31.4972C26.1444 32.7613 25.2317 33.9748 24.3609 34.7062L24.3423 34.7231C24.0582 34.9303 23.7276 35.184 23.3225 35.3193C22.6333 34.0044 22.3353 32.4781 22.3353 30.9687V30.753C22.3446 30.6431 22.3446 30.529 22.3446 30.419C22.6566 24.8254 27.6066 20.3395 33.7768 20.0732C33.8513 20.0732 33.9211 20.0647 33.9956 20.0647C34.1167 20.0563 34.2424 20.0563 34.3542 20.0563C35.9934 20.0563 37.4835 20.3395 38.9038 20.8723L38.8945 20.8765Z" fill="#F9F9F8"></path>
<path d="M16.2583 35.2136C15.9463 35.0825 15.6809 34.8795 15.4341 34.6724C14.6657 34.0509 13.9346 33.1334 13.2175 32.1314C14.0976 33.2771 15.0196 34.351 15.8997 34.981L15.909 34.9895C16.0208 35.0656 16.1465 35.1459 16.2583 35.2136Z" fill="#F9F9F8"></path>
<path d="M23.1321 0.539958C23.1321 0.539958 23.0852 0.523046 23.0664 0.51459V0.506134C23.0945 0.51459 23.1133 0.523046 23.1321 0.539958Z" fill="#F9F9F8"></path>
<path opacity="0.48" d="M5.51996 15.8748C5.36629 15.8833 5.20796 15.8917 5.04497 15.8917C3.43376 15.9086 1.89705 15.6423 0.495383 15.1434C-0.0634201 16.2638 -0.0541067 17.5195 0.0669673 19.0416C0.132161 19.8491 0.257892 20.4622 0.453473 20.9526C1.89239 20.403 3.51292 20.0563 5.18467 20.0563C5.28712 20.0563 5.39423 20.0563 5.49667 20.0647C5.48736 20.0563 5.48736 20.0394 5.48736 20.0309C5.24055 18.6357 5.25918 17.232 5.5153 15.8748H5.51996ZM23.2713 35.222C22.7404 34.0762 22.4191 32.8374 22.3446 31.5394C22.3353 31.3492 22.326 31.1589 22.326 30.9729V30.7573C22.2049 30.7826 22.0699 30.7996 21.9488 30.8165C20.4307 31.0236 18.8754 31.0152 17.3712 30.7826C17.3154 30.7742 17.2595 30.7657 17.1989 30.7488V30.9729C17.1989 32.4611 16.8497 33.924 16.2583 35.2178C16.412 35.3023 16.561 35.3827 16.7147 35.4334C18.2141 35.9746 22.1444 35.9154 23.5972 35.2178C23.6904 35.1755 23.7789 35.1248 23.872 35.0529C23.9465 35.0022 24.035 34.943 24.1095 34.8965C24.184 34.8457 24.2632 34.7865 24.3377 34.7231C24.0536 34.9303 23.6857 35.0825 23.2759 35.222H23.2713ZM18.0139 0.0833325C17.2735 0.159436 16.5237 0.298959 15.8718 0.599145C16.4865 1.88022 16.859 3.32619 16.8869 4.82289V5.07234C17.0592 5.03006 17.2269 5.00469 17.3992 4.97932C17.646 4.9455 17.8928 4.92013 18.1489 4.89476C19.4574 4.77215 20.7287 4.8102 21.9301 4.97087C21.9953 4.97932 22.0745 4.98778 22.1397 5.00469V4.89476C22.1118 3.38115 22.4796 1.82949 23.0664 0.514586C21.5576 -0.106926 19.5226 -0.0435067 18.0139 0.0833325ZM38.9224 14.7586C37.5114 15.2998 35.9561 15.6296 34.3263 15.6465H33.9304C33.9584 15.7311 33.9677 15.8114 33.9863 15.8959C34.2331 17.2404 34.2424 18.623 33.9956 20.0098C33.9956 20.0267 33.9863 20.052 33.9863 20.069C34.1074 20.0605 34.2331 20.0605 34.3449 20.0605C35.9841 20.0605 37.4742 20.3438 38.8945 20.8765C39.132 20.5129 39.295 20.1451 39.3508 19.7561C39.5511 18.4581 39.5325 16.2553 38.9224 14.7544V14.7586Z" fill="#F9F9F8"></path>
<path d="M38.9224 14.7586C37.5114 15.2998 35.9561 15.6296 34.3263 15.6465H33.7488C27.5787 15.4562 22.5541 11.0338 22.1537 5.44017C22.1443 5.30065 22.135 5.1569 22.135 5.00892V4.89899C22.1071 3.38538 22.475 1.83371 23.0617 0.518814C23.0803 0.52727 23.1083 0.535726 23.1269 0.544182C23.2014 0.578005 23.2806 0.611829 23.3551 0.645653C23.4296 0.679477 23.5088 0.721757 23.574 0.764036C23.6112 0.780948 23.6391 0.79786 23.6764 0.823228C23.7882 0.890875 23.9046 0.971206 24.007 1.05577C24.0257 1.06422 24.035 1.08113 24.0536 1.09805C25.0222 1.89713 25.9396 3.16552 26.8476 4.47197C26.9314 4.58189 27.0106 4.70451 27.0851 4.81443C27.0851 4.81443 27.0882 4.82007 27.0944 4.83135C27.0944 4.83135 27.113 4.84826 27.1224 4.86517C28.0397 6.18007 28.9711 7.49074 29.9676 8.35747C31.1411 9.3891 33.1435 10.3954 34.9642 11.4228C34.9735 11.4312 34.9922 11.4397 35.0015 11.4481C36.3566 12.2049 37.6092 12.9702 38.3264 13.7651C38.5359 13.9976 38.7129 14.2893 38.8572 14.6276C38.8572 14.636 38.8665 14.6445 38.8665 14.6529C38.8852 14.6867 38.9038 14.7206 38.9131 14.7544L38.9224 14.7586Z" fill="#F9F9F8"></path>
<path d="M17.1943 30.7488V30.9729C17.1943 32.4611 16.845 33.924 16.2536 35.2178C16.1419 35.1501 16.0161 35.0698 15.9044 34.9937L15.8951 34.9852C15.0149 34.3553 14.0929 33.2814 13.2128 32.1356C13.1942 32.1102 13.1662 32.0764 13.1383 32.0426C13.0032 31.8608 12.8635 31.6832 12.7285 31.5014L12.0859 30.622C11.4805 29.806 10.9403 29.0449 10.4747 28.5291C8.95658 26.7999 6.84244 25.7133 4.81678 24.5168L4.60723 24.3857L4.42562 24.2842L4.31385 24.2251C4.31385 24.2251 4.26729 24.1997 4.24866 24.1828C3.16831 23.5697 2.16246 22.9524 1.47327 22.3056C1.47327 22.3056 1.46706 22.3027 1.45464 22.2971L1.38945 22.2379C1.29632 22.1534 1.19853 22.0561 1.11471 21.9631C1.04951 21.8954 0.979661 21.8236 0.933094 21.7475C0.867901 21.6714 0.812021 21.591 0.751484 21.5065C0.723543 21.4642 0.695603 21.4219 0.676977 21.3754C0.621096 21.3078 0.583842 21.2274 0.546589 21.1513C0.518649 21.0921 0.490709 21.0203 0.462769 20.9526C1.90169 20.403 3.52222 20.0563 5.19397 20.0563C5.29642 20.0563 5.40352 20.0563 5.50597 20.0647C5.5991 20.0647 5.69689 20.0732 5.79003 20.0732C11.9601 20.348 16.9009 24.8508 17.1943 30.4529C17.2036 30.5459 17.2036 30.6516 17.2036 30.7446L17.1943 30.7488Z" fill="#F9F9F8"></path>
<path d="M16.8823 4.82712V5.07657C16.8823 5.16113 16.8823 5.25837 16.873 5.34293C16.6727 10.9535 11.8018 15.5154 5.64101 15.879H5.51993C5.36626 15.8875 5.20794 15.896 5.04495 15.896C3.43374 15.9129 1.89703 15.6465 0.495361 15.1476C0.80736 14.5092 1.30097 13.9173 2.06001 13.3423C2.72126 12.8349 3.49893 12.3529 4.31385 11.8709L5.35695 11.2494C5.35695 11.2494 5.36626 11.241 5.37558 11.241C6.8145 10.3784 8.25807 9.4948 9.30117 8.50546C10.3722 7.48229 11.3129 6.01095 12.2582 4.59035C12.2861 4.55653 12.3141 4.51425 12.3327 4.48043C13.1662 3.22472 14.0091 2.01975 14.9404 1.19952C15.1593 1.00926 15.3968 0.848599 15.6529 0.717532C15.7181 0.675253 15.7973 0.641429 15.8718 0.607605C16.4864 1.88868 16.859 3.33465 16.8869 4.83135L16.8823 4.82712Z" fill="#F9F9F8"></path>
<path d="M35.0064 11.427V11.4524C35.0064 11.4524 34.9783 11.4354 34.9689 11.427H35.0064Z" fill="#F9F9F8"></path>
</svg></svg></g></g></svg></g></svg>